<?xml version="1.0" standalone="no"?>
<svg id="Frame" width="24" height="24" viewBox="0 0 24 24" fill="none" xmlns="http://www.w3.org/2000/svg" style="max-width: 100%; max-height: 100%;">
<path d="M19.8999 2.30719C19.739 1.8976 19.1614 1.8976 19.0005 2.30719L18.5701 3.40247C18.521 3.52752 18.4224 3.62651 18.2978 3.67583L17.2065 4.1078C16.7984 4.26934 16.7984 4.849 17.2065 5.01054L18.2978 5.44252C18.4224 5.49184 18.521 5.59082 18.5701 5.71587L19.0005 6.81115C19.1614 7.22074 19.739 7.22074 19.8999 6.81116L20.3303 5.71587C20.3794 5.59082 20.478 5.49184 20.6026 5.44252L21.6939 5.01054C22.102 4.849 22.102 4.26934 21.6939 4.1078L20.6026 3.67583C20.478 3.62651 20.3794 3.52752 20.3303 3.40247L19.8999 2.30719Z" stroke="#F7F7F7" stroke-dasharray="0,0,0,15.628257751464844"><animate attributeType="XML" attributeName="stroke-dasharray" repeatCount="1" dur="2.5s" values="0,0,0,15.628257751464844; 
          0,7.814128875732422,7.814128875732422,0; 
          15.628257751464844,0,0,0" keyTimes="0; 0.5; 1" fill="freeze"></animate></path>
<path d="M16.0327 8.12969C15.8717 7.72011 15.2942 7.72011 15.1332 8.12969L14.9763 8.52904C14.9272 8.65409 14.8286 8.75307 14.704 8.80239L14.3061 8.95989C13.898 9.12143 13.898 9.70109 14.3061 9.86263L14.704 10.0201C14.8286 10.0694 14.9272 10.1684 14.9763 10.2935L15.1332 10.6928C15.2942 11.1024 15.8717 11.1024 16.0327 10.6928L16.1896 10.2935C16.2387 10.1684 16.3373 10.0694 16.4619 10.0201L16.8598 9.86263C17.2679 9.70109 17.2679 9.12143 16.8598 8.95989L16.4619 8.80239C16.3373 8.75307 16.2387 8.65409 16.1896 8.52904L16.0327 8.12969Z" stroke="#F7F7F7" stroke-dasharray="0,0,0,9.65436840057373"><animate attributeType="XML" attributeName="stroke-dasharray" repeatCount="1" dur="2.5s" values="0,0,0,9.65436840057373; 
          0,4.827184200286865,4.827184200286865,0; 
          9.65436840057373,0,0,0" keyTimes="0; 0.5; 1" fill="freeze"></animate></path>
<path d="M7.37554 20.013C7.017 19.8056 6.5582 19.9281 6.3508 20.2866C6.14339 20.6452 6.26591 21.104 6.62446 21.3114L7.37554 20.013ZM2.68862 17.3755C2.89602 17.7341 3.35482 17.8566 3.71337 17.6492C4.07191 17.4418 4.19443 16.983 3.98703 16.6245L2.68862 17.3755ZM21.25 12C21.25 17.1086 17.1086 21.25 12 21.25V22.75C17.9371 22.75 22.75 17.9371 22.75 12H21.25ZM2.75 12C2.75 6.89137 6.89137 2.75 12 2.75V1.25C6.06294 1.25 1.25 6.06294 1.25 12H2.75ZM15.5 14.25C12.3244 14.25 9.75 11.6756 9.75 8.5H8.25C8.25 12.5041 11.4959 15.75 15.5 15.75V14.25ZM20.4253 11.469C19.4172 13.1373 17.5882 14.25 15.5 14.25V15.75C18.1349 15.75 20.4407 14.3439 21.7092 12.2447L20.4253 11.469ZM9.75 8.5C9.75 6.41182 10.8627 4.5828 12.531 3.57467L11.7553 2.29085C9.65609 3.5593 8.25 5.86509 8.25 8.5H9.75ZM12 2.75C11.9115 2.75 11.8077 2.71008 11.7324 2.63168C11.6686 2.56527 11.6538 2.50244 11.6503 2.47703C11.6461 2.44587 11.6482 2.35557 11.7553 2.29085L12.531 3.57467C13.0342 3.27065 13.196 2.71398 13.1368 2.27627C13.0754 1.82126 12.7166 1.25 12 1.25V2.75ZM21.7092 12.2447C21.6444 12.3518 21.5541 12.3539 21.523 12.3497C21.4976 12.3462 21.4347 12.3314 21.3683 12.2676C21.2899 12.1923 21.25 12.0885 21.25 12H22.75C22.75 11.2834 22.1787 10.9246 21.7237 10.8632C21.286 10.804 20.7293 10.9658 20.4253 11.469L21.7092 12.2447ZM12 21.25C10.3139 21.25 8.73533 20.7996 7.37554 20.013L6.62446 21.3114C8.2064 22.2265 10.0432 22.75 12 22.75V21.25ZM3.98703 16.6245C3.20043 15.2647 2.75 13.6861 2.75 12H1.25C1.25 13.9568 1.77351 15.7936 2.68862 17.3755L3.98703 16.6245Z" fill="#F7F7F7" stroke-dasharray="0,0,0,173.45318603515625"><animate attributeType="XML" attributeName="stroke-dasharray" repeatCount="1" dur="2.5s" values="0,0,0,173.45318603515625; 
          0,86.72659301757812,86.72659301757812,0; 
          173.45318603515625,0,0,0" keyTimes="0; 0.5; 1" fill="freeze"></animate></path>
</svg>